<svg width="255" height="347" viewBox="0 0 255 347" fill="none" xmlns="http://www.w3.org/2000/svg">
<path d="M3.27785 187.966C3.7759 198.226 14.0358 193.444 18.6179 190.257C23.0008 187.169 24.2957 189.759 24.6942 183.782C24.993 179.798 25.3915 175.913 25.1922 171.928C18.5183 171.331 11.3463 172.924 5.86773 176.909C2.97902 178.901 -2.20075 185.475 3.27785 187.966Z" fill="#F6D2A2"/>
<path d="M207.779 314.073C215.648 318.954 230.092 333.696 218.238 340.868C206.883 351.228 200.507 329.413 190.546 326.425C194.83 320.548 200.209 315.169 207.779 314.073Z" fill="#F6D2A2"/>
<path d="M66.9292 330.708C57.6654 332.103 52.4857 340.47 44.716 344.753C37.4444 349.037 34.6553 343.359 34.0576 342.163C32.9619 341.665 33.0615 342.662 31.2685 340.869C24.495 330.21 38.2413 322.44 45.4133 317.161C55.3744 315.169 61.6499 323.835 66.9292 330.708Z" fill="#F6D2A2"/>
<path d="M251.508 186.671C251.01 196.931 240.75 192.149 236.168 188.962C231.785 185.874 230.49 188.464 230.092 182.487C229.793 178.503 229.395 174.618 229.594 170.633C236.268 170.036 243.44 171.63 248.918 175.614C251.707 177.606 256.987 184.181 251.508 186.671Z" fill="#F6D2A2"/>
<path d="M224.314 61.5595C259.875 49.0085 232.084 0.298815 201.105 21.8148C180.784 4.38286 152.794 1.19531 123.409 1.19531C94.621 3.48636 67.228 8.76574 48.1027 25.5004C17.2233 5.57819 -11.2654 53.3914 24.993 65.4443C14.8326 104.89 26.3875 145.133 24.7937 185.276C23.2996 221.335 13.8365 269.647 33.8583 302.02C50.8918 329.712 87.5486 339.574 117.731 340.669C156.28 342.064 202.998 332.601 221.724 295.247C239.654 259.686 234.674 215.359 232.383 177.009C230.092 138.26 234.375 98.9136 224.314 61.5595Z" fill="#69D7E2"/>
<path d="M254.198 180.595C253.202 178.503 251.309 176.112 249.516 174.817C244.934 171.53 239.057 169.737 232.981 169.538C232.781 163.362 232.582 156.588 232.582 148.022V140.252C232.483 115.748 232.184 104.99 230.789 91.5424C229.693 80.9837 228 71.2218 225.609 62.0576C233.678 58.9696 238.957 53.8895 241.049 47.3152C243.041 41.2389 242.045 34.3658 238.658 28.2895C235.172 22.3128 229.594 17.8303 223.119 16.0374C216.146 14.1447 208.576 15.5393 201.304 20.4202C194.83 14.9416 187.359 10.758 178.991 7.57043C164.149 2.09183 146.917 0 123.508 0V0.996109L123.409 0C98.4062 1.99222 79.8786 5.87704 64.5385 13.3479C58.3627 16.3362 52.8841 19.9222 48.1027 24.1058C40.7315 19.5237 33.0615 18.428 25.9891 20.6195C19.4148 22.6117 13.737 27.2934 10.3502 33.3696C6.96344 39.4459 6.16655 46.4187 8.4576 52.3953C10.7487 58.372 16.028 63.0537 23.8973 65.9424C21.407 76.0031 20.1121 86.6615 19.9129 98.4156C19.7136 109.871 20.2117 119.035 22.0047 139.754C23.2996 155.194 23.7977 162.266 23.9969 170.833C17.2234 170.534 10.4498 172.327 5.36967 176.012C3.57667 177.307 1.58445 179.598 0.687954 181.79C-0.606987 184.579 -0.108933 187.069 2.48095 188.563C2.87939 193.345 5.56889 195.536 9.65294 195.138C12.6413 194.839 16.2273 193.245 19.3152 191.054C20.0125 190.556 20.7097 190.157 21.407 189.858C21.7059 189.759 21.9051 189.659 22.2039 189.56C22.2039 189.56 22.8016 189.36 23.0008 189.261C23.2996 189.161 23.5985 189.061 23.7977 188.862C23.5985 193.544 23.2 198.425 22.3035 209.581C21.3074 222.132 20.8094 229.005 20.6101 236.675C19.7136 265.164 23.1004 285.883 33.2607 302.319C36.4483 307.499 40.3331 312.081 44.9152 316.265C44.0187 316.862 40.2335 319.651 39.0382 320.548C34.8545 323.735 31.9658 326.425 30.2724 329.413C28.0809 333.298 28.081 337.183 30.5712 341.267L30.6708 341.367L30.7704 341.466C31.8662 342.562 32.4638 342.861 33.2607 342.861H33.3603H33.5596C33.6592 343.06 33.7588 343.16 33.8584 343.359C34.1572 343.857 34.4561 344.255 34.7549 344.654C37.2452 347.542 40.7315 348.24 45.4132 345.451C47.9035 344.156 49.6965 342.661 53.4817 339.474C53.5813 339.374 53.5813 339.374 53.681 339.275C59.7572 334.095 62.7455 332.202 67.228 331.505L68.8218 331.206C69.4195 331.505 70.0171 331.704 70.7144 332.003C84.8592 337.681 101.295 340.769 117.93 341.367C139.446 342.163 160.165 339.474 177.697 333.099C182.378 331.405 186.761 329.413 190.945 327.222C193.535 328.218 195.726 330.31 199.91 335.191C200.109 335.39 200.109 335.39 200.209 335.589C200.408 335.788 200.408 335.888 200.507 335.988C200.707 336.286 201.005 336.486 201.205 336.784C204.492 340.669 206.683 342.562 209.174 343.658C212.461 345.052 215.648 344.355 218.935 341.367C224.713 337.781 225.111 332.202 221.326 325.827C218.637 321.345 213.955 316.663 209.572 313.675C214.752 308.595 219.234 302.518 222.721 295.645C232.283 276.52 235.969 254.207 235.77 225.519C235.67 215.359 235.272 206.493 234.176 189.56V189.061C234.674 189.261 235.172 189.56 235.67 189.958C238.758 192.05 242.344 193.743 245.332 194.042C249.416 194.44 252.106 192.249 252.504 187.468C254.995 185.874 255.493 183.384 254.198 180.595ZM222.521 18.1292C228.498 19.723 233.678 23.9066 236.865 29.4848C240.053 35.063 240.949 41.3385 239.156 46.9167C237.264 52.7938 232.483 57.4755 225.012 60.2646C223.518 54.8856 221.725 49.6062 219.732 44.5261C222.621 42.0358 224.016 38.9479 221.725 34.565C219.433 30.1821 215.449 29.684 211.365 30.979C208.775 27.5922 205.886 24.6039 202.898 21.8148C209.472 17.6311 216.246 16.4358 222.521 18.1292ZM10.151 51.7977C8.05916 46.4187 8.75644 40.0436 11.944 34.4654C15.1315 28.8872 20.3113 24.5043 26.4872 22.7113C32.8623 20.8187 39.7354 21.7152 46.509 25.6996C42.6241 29.186 39.1378 33.1704 36.1494 37.5533C30.9697 34.8638 25.6903 34.3658 22.702 39.8444C19.614 45.7214 23.2 49.407 28.2802 52.1961C27.5829 53.8895 26.8856 55.6825 26.288 57.4755C25.5907 59.6669 24.8934 61.958 24.2957 64.249C17.0241 61.4599 12.2428 57.1767 10.151 51.7977ZM22.2039 187.567C22.1043 187.567 21.5066 187.767 21.5066 187.866C21.2078 187.966 20.909 188.065 20.6101 188.265C19.8132 188.563 19.0164 189.061 18.2195 189.659C15.4304 191.651 12.0436 193.146 9.45371 193.345C6.46539 193.644 4.772 192.349 4.47317 188.763C6.565 188.065 7.4615 187.567 8.25838 186.372L6.66461 185.177C6.06694 185.974 5.46928 186.272 3.67628 186.87C3.57667 186.87 3.57667 186.87 3.47706 186.97C1.88329 186.073 1.58445 184.679 2.48095 182.686C3.27784 180.893 5.07083 178.802 6.565 177.706C11.3463 174.219 17.7214 172.526 24.0965 172.925C24.0965 175.415 24.1961 177.905 24.0965 180.296C24.0965 180.595 24.0965 180.794 23.9969 181.093C23.8973 182.487 23.8973 183.085 23.7977 183.782C23.4988 186.671 23.2996 187.069 22.2039 187.567ZM52.2864 337.88C52.1868 337.98 52.1868 337.98 52.0872 338.079C48.4016 341.267 46.6086 342.562 44.3175 343.857C40.5323 346.148 37.9424 345.65 36.1494 343.458C35.8506 343.16 35.6514 342.761 35.4522 342.462C35.3525 342.363 35.2529 342.163 35.1533 342.064C35.1533 342.064 35.1533 342.064 35.1533 341.964C35.3525 340.171 36.0498 338.876 37.8428 336.087C37.9424 335.988 37.9424 335.988 37.9424 335.888C39.0381 334.294 39.5362 333.398 40.0343 332.302L38.2413 331.505C37.8428 332.402 37.3448 333.198 36.3487 334.792C36.249 334.892 36.249 334.892 36.249 334.991C34.4561 337.581 33.6592 339.175 33.2607 340.968H33.1611C33.1611 340.968 33.1611 340.968 33.0615 340.968H32.8623C32.6631 340.868 32.3642 340.669 31.9658 340.271C28.081 334.095 31.1689 328.816 39.9346 322.241C41.0304 321.444 44.716 318.854 45.7121 318.058C45.9113 318.058 46.1105 317.958 46.3097 317.858C51.6887 322.44 57.9642 326.425 64.937 329.712C64.937 329.812 65.0366 329.911 65.1362 330.011C61.0522 331.007 57.8646 333.099 52.2864 337.88ZM219.533 327.023C222.621 332.202 222.521 336.386 218.637 339.275C218.338 338.677 218.139 337.98 217.74 336.984C217.74 336.884 217.74 336.884 217.64 336.784C216.246 332.999 215.349 331.405 213.656 329.612L212.262 331.007C213.756 332.402 214.453 333.896 215.847 337.382C215.847 337.482 215.847 337.482 215.947 337.581C216.445 338.876 216.744 339.673 217.043 340.37C214.453 342.562 212.162 342.96 209.771 341.865C207.679 340.968 205.687 339.075 202.5 335.49C202.3 335.29 202.101 334.991 201.902 334.693C201.802 334.593 201.703 334.493 201.603 334.294C201.404 334.095 201.404 334.095 201.304 333.896C197.619 329.612 195.427 327.321 193.037 326.026C198.615 322.839 203.595 319.253 208.078 315.069C212.261 318.157 216.943 322.739 219.533 327.023ZM220.928 294.749C212.361 311.981 197.22 324.134 176.9 331.505C159.567 337.781 139.047 340.37 117.83 339.574C81.2732 338.279 49.5969 325.528 34.7549 301.423C24.7938 285.385 21.5066 264.965 22.4031 236.875C22.702 229.205 23.1004 222.332 24.0965 209.781C25.1922 195.636 25.4911 191.552 25.7899 185.177C25.9891 180.595 25.9891 175.913 25.8895 170.932C25.6903 162.167 25.1922 155.194 23.8973 139.555C22.1043 118.836 21.6062 109.771 21.8055 98.4156C22.1043 83.4739 24.0965 70.3253 28.2802 57.8739C35.0537 37.6529 47.5051 24.0062 65.435 15.1409C80.4763 7.76965 98.7051 3.98444 123.508 1.99222C146.718 1.99222 163.651 4.08405 178.294 9.46304C195.826 15.9377 208.875 27.2934 217.84 44.7253C223.617 58.87 227.004 74.1105 228.797 91.642C230.191 104.99 230.49 115.748 230.59 140.153V147.922C230.69 159.975 230.889 168.442 231.387 176.909C231.586 180.196 231.686 181.591 232.184 189.46C233.279 206.394 233.678 215.16 233.777 225.32C233.977 253.908 230.391 275.922 220.928 294.749ZM251.409 185.675C251.309 185.675 251.209 185.575 251.11 185.575C249.317 184.977 248.719 184.579 248.121 183.882L246.528 185.077C247.424 186.272 248.321 186.77 250.313 187.468C249.914 191.054 248.221 192.349 245.332 192.05C242.742 191.851 239.356 190.257 236.567 188.364C235.77 187.767 234.973 187.368 234.176 186.97C234.076 186.97 233.977 186.87 233.877 186.87C233.479 181.391 233.479 179.997 233.279 177.108C233.18 175.315 233.08 173.522 232.981 171.729C238.559 171.829 244.037 173.522 248.221 176.61C249.715 177.706 251.508 179.798 252.305 181.591C253.301 183.284 253.102 184.778 251.409 185.675Z" fill="black"/>
<path d="M138.51 103.924C138.61 109.004 139.606 114.582 138.709 119.961C137.315 122.551 134.725 122.85 132.434 123.846C129.246 123.348 126.557 121.256 125.262 118.268C124.465 112.191 125.461 106.414 125.76 100.338C125.76 100.139 129.545 100.437 132.932 101.434C135.821 102.33 138.51 103.824 138.51 103.924Z" fill="white"/>
<path d="M110.32 104.322C107.531 114.881 114.006 132.114 124.664 117.969C123.867 111.992 124.764 106.215 125.062 100.338C125.162 99.8397 110.42 103.625 110.32 104.322Z" fill="white"/>
<path d="M139.705 108.606C139.506 105.617 139.406 104.422 139.406 102.928V102.23L138.709 102.031L126.158 98.1464V97.4491L124.863 97.7479H124.764V97.8475L110.619 101.434L110.121 101.533L109.922 102.031C107.73 107.311 108.228 115.279 111.017 120.16C114.205 125.739 119.385 125.838 124.664 119.463C126.158 122.352 128.947 124.344 132.135 124.842H132.434L132.733 124.742C133.131 124.543 133.529 124.444 134.227 124.145C134.326 124.145 134.326 124.145 134.426 124.045C137.315 123.049 138.51 122.252 139.506 120.36L139.606 120.26V120.061C139.905 118.268 140.004 116.375 140.004 114.283C140.004 112.789 139.905 111.395 139.705 108.606ZM123.768 104.92C123.668 106.713 123.568 107.41 123.469 108.406C123.27 112.092 123.27 114.881 123.568 117.67C118.887 123.647 115.201 123.647 112.711 119.164C110.32 114.981 109.822 107.908 111.615 103.227L124.166 100.039C124.066 101.334 123.967 102.629 123.768 104.92ZM137.713 119.662C137.016 120.858 136.119 121.455 133.729 122.252C133.629 122.252 133.629 122.252 133.529 122.352C132.932 122.551 132.533 122.75 132.234 122.85C129.545 122.352 127.254 120.559 126.158 118.069C125.859 115.379 125.859 112.59 126.059 108.904C126.158 107.908 126.158 107.211 126.357 105.418C126.557 103.127 126.656 101.732 126.656 100.437L137.514 103.725C137.514 105.02 137.613 106.215 137.813 108.805C138.012 111.494 138.112 112.889 138.112 114.483C138.112 116.375 138.012 118.069 137.713 119.662Z" fill="black"/>
<path d="M50.3588 60.5249C59.523 96.1856 116.6 87.0214 114.409 51.2611C111.819 8.42843 41.5931 16.6961 50.3588 60.5249Z" fill="white"/>
<path d="M115.405 51.1615C114.807 40.802 110.225 32.7335 102.654 27.6534C95.8809 23.0713 86.916 21.2783 78.0506 22.374C69.1852 23.5693 61.0171 27.5537 55.6381 33.8292C49.6615 40.802 47.3704 49.9662 49.4623 60.525L50.3588 60.3257L49.4623 60.525C58.8257 97.1818 117.596 88.3164 115.405 51.1615ZM51.2553 60.3257C49.263 50.265 51.4545 41.6985 57.0327 35.2238C62.1129 29.3467 69.7829 25.4619 78.2498 24.3662C86.7167 23.2705 95.1837 24.9639 101.559 29.3467C108.631 34.1281 112.914 41.5989 113.512 51.4604C115.604 86.2246 60.1206 94.5919 51.2553 60.3257Z" fill="black"/>
<path d="M96.6623 67.9183C101.999 67.9183 106.325 63.2356 106.325 57.4591C106.325 51.6827 101.999 47 96.6623 47C91.3259 47 87 51.6827 87 57.4591C87 63.2356 91.3259 67.9183 96.6623 67.9183Z" fill="black"/>
<path d="M101.045 62.5393C102.31 62.5393 103.336 61.3351 103.336 59.8498C103.336 58.3644 102.31 57.1603 101.045 57.1603C99.7798 57.1603 98.754 58.3644 98.754 59.8498C98.754 61.3351 99.7798 62.5393 101.045 62.5393Z" fill="white"/>
<path d="M130.405 53.8578C137.478 94.7979 204.416 83.9403 194.754 42.7014C186.088 5.64612 128.015 15.906 130.405 53.8578Z" fill="white"/>
<path d="M195.651 42.5022C186.785 4.3512 127.019 14.8103 129.409 53.9574V54.057C132.696 73.3816 149.929 83.243 168.955 80.0555C177.621 78.5613 185.391 74.3777 190.471 68.2018C196.049 61.3286 198.041 52.4633 195.651 42.5022ZM188.977 67.0065C184.195 72.7839 176.924 76.7683 168.656 78.1629C150.626 81.1512 134.489 71.8874 131.302 53.7582C129.11 16.9022 185.49 7.0407 193.858 42.9006C196.049 52.3637 194.256 60.6314 188.977 67.0065Z" fill="black"/>
<path d="M151.055 67.7191C156.282 67.7191 160.518 63.0364 160.518 57.2599C160.518 51.4835 156.282 46.8008 151.055 46.8008C145.829 46.8008 141.592 51.4835 141.592 57.2599C141.592 63.0364 145.829 67.7191 151.055 67.7191Z" fill="black"/>
<path d="M155.438 62.3401C156.648 62.3401 157.63 61.136 157.63 59.6506C157.63 58.1652 156.648 56.9611 155.438 56.9611C154.228 56.9611 153.247 58.1652 153.247 59.6506C153.247 61.136 154.228 62.3401 155.438 62.3401Z" fill="white"/>
<path d="M112.377 82.8028C104.508 83.5001 98.1326 92.7639 102.217 100.135C107.596 109.897 119.649 99.2386 127.119 100.235C135.785 100.434 142.858 109.399 149.731 101.828C157.401 93.4612 146.444 85.2931 137.778 81.7071L112.377 82.8028Z" fill="#F6D2A2"/>
<path d="M150.727 89.4768C148.038 86.09 143.356 83.002 138.276 80.9102L138.076 80.8106H137.877L112.377 81.8067C103.512 82.6036 97.1364 92.8635 101.42 100.633C103.113 103.622 105.404 105.116 108.492 105.315C110.783 105.414 113.174 104.916 116.859 103.622C117.158 103.522 117.557 103.422 118.055 103.223C123.035 101.53 125.027 101.032 127.02 101.33H127.119C129.51 101.33 131.502 102.028 135.287 103.522C139.471 105.215 140.766 105.713 142.858 105.913C145.747 106.112 148.237 105.116 150.528 102.625C154.413 98.3421 154.213 93.76 150.727 89.4768ZM149.034 101.231C147.141 103.323 145.248 104.02 142.957 103.92C141.164 103.821 139.969 103.323 135.985 101.729C132 100.036 129.809 99.4378 127.219 99.3382C124.729 99.0394 122.637 99.5375 117.357 101.33C116.859 101.53 116.461 101.629 116.162 101.729C108.891 104.219 105.404 104.02 103.013 99.6371C99.4275 93.1624 104.906 84.3966 112.377 83.6993L137.578 82.7032C142.36 84.6954 146.643 87.5841 149.133 90.6721C152.122 94.2581 152.221 97.8441 149.034 101.231Z" fill="#231F20"/>
<path d="M139.77 78.5196C136.682 67.1639 110.783 68.8573 111.381 82.4044C112.676 92.4651 142.758 89.7756 139.77 78.5196Z" fill="black"/>
</svg>
